<svg xmlns="http://www.w3.org/2000/svg" width="14.757" height="15.759" viewBox="0 0 14.757 15.759">
  <path id="Forma_1_copy_29" data-name="Forma 1 copy 29" d="M454.253,1544.957a1.345,1.345,0,0,1-1.353-1.331v-11.462a1.343,1.343,0,0,1,1.313-1.322v1.786a1.475,1.475,0,0,0,1.495,1.457h.943a1.483,1.483,0,0,0,1.5-1.457v-1.792H462.4v1.792a1.483,1.483,0,0,0,1.5,1.457h.942a1.475,1.475,0,0,0,1.495-1.457v-1.786a1.343,1.343,0,0,1,1.313,1.322v11.462a1.346,1.346,0,0,1-1.353,1.331Zm.373-8.386v6.4a.579.579,0,0,0,.585.572h10.111a.579.579,0,0,0,.585-.572v-6.4a.579.579,0,0,0-.585-.572H455.21A.579.579,0,0,0,454.625,1536.571Zm8.043,5.195a.339.339,0,0,1-.343-.335v-1.168a.339.339,0,0,1,.343-.335h1.2a.339.339,0,0,1,.343.335v1.168a.339.339,0,0,1-.343.335Zm-2.988,0a.338.338,0,0,1-.342-.335v-1.168a.338.338,0,0,1,.342-.335h1.2a.338.338,0,0,1,.342.335v1.168a.338.338,0,0,1-.342.335Zm-2.987,0a.339.339,0,0,1-.343-.335v-1.168a.339.339,0,0,1,.343-.335h1.2a.339.339,0,0,1,.343.335v1.168a.339.339,0,0,1-.343.335Zm5.975-2.921a.339.339,0,0,1-.343-.335v-1.169a.339.339,0,0,1,.343-.335h1.2a.339.339,0,0,1,.343.335v1.169a.339.339,0,0,1-.343.335Zm-2.988,0a.338.338,0,0,1-.342-.335v-1.169a.339.339,0,0,1,.342-.335h1.2a.339.339,0,0,1,.342.335v1.169a.338.338,0,0,1-.342.335Zm-2.987,0a.339.339,0,0,1-.343-.335v-1.169a.339.339,0,0,1,.343-.335h1.2a.339.339,0,0,1,.343.335v1.169a.339.339,0,0,1-.343.335Zm7.2-5.717a.507.507,0,0,1-.512-.5V1529.7a.507.507,0,0,1,.512-.5h.932a.507.507,0,0,1,.513.5v2.927a.507.507,0,0,1-.513.5Zm-8.19,0a.507.507,0,0,1-.512-.5V1529.7a.507.507,0,0,1,.512-.5h.932a.507.507,0,0,1,.513.5v2.927a.507.507,0,0,1-.513.5Z" transform="translate(-452.9 -1529.198)" fill="#6c7b95"/>
</svg>
